<?xml version="1.0" encoding="UTF-8"?>
<svg xmlns="http://www.w3.org/2000/svg" version="1.1" width="500" height="500" viewBox="0 0 500 500"><rect x="0" y="0" width="500" height="500" fill="#ffffff"/><g transform="scale(16.129)"><g transform="translate(1,1)"><g><g transform="translate(3.5,3.5)"><path fill-rule="evenodd" d="M-3.5 -3.5L3.5 -3.5L3.5 3.5L-3.5 3.5ZM-2.5 -2.5L-2.5 2.5L2.5 2.5L2.5 -2.5Z" fill="#000000"/><path fill-rule="evenodd" d="M-1.5 -1.5L1.5 -1.5L1.5 1.5L-1.5 1.5Z" fill="#000000"/></g></g><g><g transform="translate(25.5,3.5)"><g transform="rotate(90)"><path fill-rule="evenodd" d="M-3.5 -3.5L3.5 -3.5L3.5 3.5L-3.5 3.5ZM-2.5 -2.5L-2.5 2.5L2.5 2.5L2.5 -2.5Z" fill="#000000"/><path fill-rule="evenodd" d="M-1.5 -1.5L1.5 -1.5L1.5 1.5L-1.5 1.5Z" fill="#000000"/></g></g></g><g><g transform="translate(3.5,25.5)"><g transform="rotate(-90)"><path fill-rule="evenodd" d="M-3.5 -3.5L3.5 -3.5L3.5 3.5L-3.5 3.5ZM-2.5 -2.5L-2.5 2.5L2.5 2.5L2.5 -2.5Z" fill="#000000"/><path fill-rule="evenodd" d="M-1.5 -1.5L1.5 -1.5L1.5 1.5L-1.5 1.5Z" fill="#000000"/></g></g></g><path fill-rule="evenodd" d="M9 0L9 1L10 1L10 3L9 3L9 2L8 2L8 8L9 8L9 9L10 9L10 10L9 10L9 11L8 11L8 9L7 9L7 8L2 8L2 9L3 9L3 12L2 12L2 10L1 10L1 8L0 8L0 10L1 10L1 12L2 12L2 13L1 13L1 14L0 14L0 16L1 16L1 14L2 14L2 16L3 16L3 14L4 14L4 13L3 13L3 12L4 12L4 11L7 11L7 12L5 12L5 15L4 15L4 17L3 17L3 18L2 18L2 17L0 17L0 21L1 21L1 18L2 18L2 21L3 21L3 19L4 19L4 21L8 21L8 22L9 22L9 23L8 23L8 27L9 27L9 28L8 28L8 29L9 29L9 28L11 28L11 27L13 27L13 26L14 26L14 27L17 27L17 28L15 28L15 29L17 29L17 28L18 28L18 29L20 29L20 28L18 28L18 27L19 27L19 26L17 26L17 25L18 25L18 24L15 24L15 23L19 23L19 25L20 25L20 26L21 26L21 25L23 25L23 27L24 27L24 25L25 25L25 23L26 23L26 25L29 25L29 23L27 23L27 22L28 22L28 20L29 20L29 19L28 19L28 18L29 18L29 17L27 17L27 18L26 18L26 17L24 17L24 16L25 16L25 15L27 15L27 16L29 16L29 14L28 14L28 13L27 13L27 14L26 14L26 13L24 13L24 12L26 12L26 11L27 11L27 10L28 10L28 9L27 9L27 8L22 8L22 9L24 9L24 10L25 10L25 11L18 11L18 10L16 10L16 8L15 8L15 6L16 6L16 7L17 7L17 6L18 6L18 7L19 7L19 8L20 8L20 9L19 9L19 10L21 10L21 6L20 6L20 7L19 7L19 4L18 4L18 3L16 3L16 0L15 0L15 1L14 1L14 0L13 0L13 2L12 2L12 0L11 0L11 1L10 1L10 0ZM19 0L19 1L17 1L17 2L19 2L19 3L20 3L20 5L21 5L21 3L20 3L20 1L21 1L21 0ZM11 2L11 3L10 3L10 4L9 4L9 8L11 8L11 10L10 10L10 11L9 11L9 12L7 12L7 13L6 13L6 14L8 14L8 15L6 15L6 16L7 16L7 17L5 17L5 18L4 18L4 19L5 19L5 20L7 20L7 19L6 19L6 18L8 18L8 15L9 15L9 16L10 16L10 17L9 17L9 18L10 18L10 20L9 20L9 19L8 19L8 20L9 20L9 22L10 22L10 24L9 24L9 25L11 25L11 26L10 26L10 27L11 27L11 26L13 26L13 25L15 25L15 24L14 24L14 23L15 23L15 21L14 21L14 20L18 20L18 19L20 19L20 18L21 18L21 19L23 19L23 18L24 18L24 19L25 19L25 20L27 20L27 19L25 19L25 18L24 18L24 17L23 17L23 18L21 18L21 17L22 17L22 16L19 16L19 15L25 15L25 14L24 14L24 13L23 13L23 14L21 14L21 13L22 13L22 12L21 12L21 13L20 13L20 12L18 12L18 11L14 11L14 12L13 12L13 10L12 10L12 8L13 8L13 9L15 9L15 8L14 8L14 6L15 6L15 4L14 4L14 3L15 3L15 2L14 2L14 3L13 3L13 4L12 4L12 2ZM10 4L10 7L11 7L11 8L12 8L12 7L13 7L13 6L12 6L12 7L11 7L11 4ZM17 4L17 5L18 5L18 4ZM17 8L17 9L18 9L18 8ZM4 9L4 10L7 10L7 9ZM26 9L26 10L27 10L27 9ZM11 11L11 13L12 13L12 15L11 15L11 14L10 14L10 12L9 12L9 15L10 15L10 16L11 16L11 20L10 20L10 22L11 22L11 23L13 23L13 22L11 22L11 20L12 20L12 21L13 21L13 20L14 20L14 19L18 19L18 18L19 18L19 16L17 16L17 17L18 17L18 18L16 18L16 16L15 16L15 15L19 15L19 14L17 14L17 13L16 13L16 12L14 12L14 13L15 13L15 15L14 15L14 16L15 16L15 17L13 17L13 16L12 16L12 15L13 15L13 12L12 12L12 11ZM28 11L28 12L29 12L29 11ZM2 13L2 14L3 14L3 13ZM19 20L19 21L17 21L17 22L20 22L20 20ZM21 21L21 24L24 24L24 21ZM25 21L25 22L27 22L27 21ZM22 22L22 23L23 23L23 22ZM26 26L26 27L25 27L25 28L24 28L24 29L27 29L27 27L28 27L28 28L29 28L29 27L28 27L28 26ZM12 28L12 29L14 29L14 28ZM21 28L21 29L23 29L23 28Z" fill="#000000"/></g></g></svg>
